<svg  xmlns="http://www.w3.org/2000/svg"  viewBox="0 0 24 24" width="24px" height="24px"><g><path d="M22.92 7.31c-.04-.15-.11-.3-.2-.43-.04-.08-.11-.16-.18-.24L19.51 3.5c-.61-.64-1.72-.64-2.34 0l-6.71 6.97-.25.25v.01l-.71.7-.7.71-2.56 2.57-.3.31c-.02.02-.03.03-.04.05-.51.54-.58 1.34-.2 1.96.01 0 .01.01.01.02l.3.3c0 .01.01.02.02.03l3.01 3.12c.31.32.73.5 1.17.5s.87-.18 1.17-.5l2.91-3.02 8.25-8.57c.07-.07.13-.15.18-.23.05-.07.09-.14.12-.21C23.02 8.11 23.05 7.69 22.92 7.31zM8.47 10.36l.7-.71L6.83 7.21c-.62-.63-1.73-.63-2.35 0l-3.02 3.15c-.62.64-.62 1.63 0 2.27l2.61 2.71c.13-.44.35-.87.68-1.23.04-.05.08-.1.13-.15l.32-.33 2.56-2.57L8.47 10.36z "/></g></svg>